<!-- Generated by IcoMoon.io -->
<svg version="1.1" xmlns="http://www.w3.org/2000/svg" width="1024" height="1024" viewBox="0 0 1024 1024">
<title></title>
<g id="icomoon-ignore">
</g>
<path fill="#000" d="M484.693 220.501c-153.941 18.432-264.192 139.947-264.192 291.499 0 78.848 28.672 149.504 83.285 204.8 97.963 99.328 250.88 115.712 368.64 39.253 82.261-53.248 131.072-144.725 131.072-245.76-0.683-156.331-120.149-281.259-277.845-289.451-16.043-1.024-34.475-1.024-40.96-0.341zM581.973 250.539c11.264 3.072 35.157 12.629 52.907 21.504 27.307 13.653 37.547 21.504 65.195 48.811 36.523 36.181 54.955 65.195 70.315 110.933 8.192 24.235 9.216 32.427 9.216 76.8 0.341 58.709-4.096 78.507-27.648 126.293-13.653 27.648-20.821 37.205-50.517 66.56-29.355 29.696-38.912 36.864-66.56 50.517-46.763 23.211-67.925 27.989-122.88 27.989s-76.459-4.779-121.173-27.307c-52.565-26.283-93.184-66.901-119.467-119.467-22.869-45.739-27.307-65.877-26.965-124.587 0-44.373 1.024-52.565 9.216-76.8 15.019-45.056 33.792-74.752 68.608-109.227 42.667-42.325 79.531-62.805 133.461-74.752 30.037-6.485 96.939-5.12 126.293 2.731z"></path>
<path fill="#000" d="M347.136 347.136c-6.827 6.485 3.755 19.115 73.387 88.747l76.117 76.117-76.459 76.459c-76.459 76.459-84.309 87.040-67.243 90.112 4.779 1.024 27.989-20.139 82.603-74.752l76.459-76.459 76.459 76.459c76.459 76.459 87.040 84.309 90.112 67.243 1.024-4.779-20.139-27.989-74.752-82.603l-76.459-76.459 76.459-76.459c54.613-54.613 75.776-77.824 74.752-82.603-3.072-17.067-13.653-9.216-90.112 67.243l-76.459 76.459-76.117-76.117c-69.632-69.632-82.261-80.213-88.747-73.387z"></path>
</svg>
